# xmcd
#
# Track frame offsets:
#	150
#	13651
#	31820
#	58583
#	85590
#	106728
#	145708
#	170752
#	185455
#	199570
#	218849
#	234719
#	261229
#	283198
#
# Disc length: 4203 seconds
#
# Revision: 0
# Processed by: cddbd v1.5.1PL2 Copyright (c) Steve Scherf et al.
# Submitted via: EasyCDDAExtractor 8.2.3.1
#
DISCID=c010690e
DTITLE=John Prine - Majestic Theater - Dalls, TX 09-30-95 disc 2
DYEAR=1995
DGENRE=Country
TTITLE0=Everything Is Cool
TTITLE1=Leave The Lights On
TTITLE2=Quit Hollerin' At Me
TTITLE3=(band intro) The Sins Of Mephisto
TTITLE4=Humidity Built The Snowman
TTITLE5=Lake Marie
TTITLE6=Hello In There
TTITLE7=Sabu Visits The Twin Cities Alone
TTITLE8=Please Don't Bury Me
TTITLE9=Illegal Smile
TTITLE10=Daddy's Little Pumpkin
TTITLE11=We Are The Lonely
TTITLE12=Storm Windows
TTITLE13=Paradise
EXTD=
EXTT0=
EXTT1=
EXTT2=
EXTT3=
EXTT4=
EXTT5=
EXTT6=
EXTT7=
EXTT8=
EXTT9=
EXTT10=
EXTT11=
EXTT12=
EXTT13=
PLAYORDER=
